<?xml version="1.0" encoding="utf-8"?>
<!-- Generator: Adobe Illustrator 16.0.0, SVG Export Plug-In . SVG Version: 6.00 Build 0)  -->
<!DOCTYPE svg PUBLIC "-//W3C//DTD SVG 1.1//EN" "http://www.w3.org/Graphics/SVG/1.1/DTD/svg11.dtd">
<svg version="1.1" id="Layer_1" xmlns="http://www.w3.org/2000/svg" xmlns:xlink="http://www.w3.org/1999/xlink" x="0px" y="0px"
	 width="300px" height="75px" viewBox="0 0 300 75" enable-background="new 0 0 300 75" xml:space="preserve">
<g>
	<path fill="#EC1C24" d="M32.233,56.964c0.034,3.687,0.749,8.373,3.273,13.092l1.578,2.949l-38.503-0.07l4.123-3.513
		C7.187,65.603,19.059,54.091,20.128,46.8l0.02-0.131l0.036-0.128c0.12-0.437,2.861-11.091-8.622-23.509l-3.105-3.358h27.337
		l9.646,18.199l7.604-18.199h29.724l-4.452,3.562c-0.117,0.094-11.908,9.721-12.672,23.124c-0.453,7.949,3.039,15.742,10.378,23.165
		l3.369,3.406H45.074l-6.322,0.089L32.233,56.964z M47.213,68.064c0.833-1.045,1.94-2.614,2.866-4.543
		c1.188-2.479,1.795-4.915,1.82-7.292L47.213,68.064z M121.826,72.995l1.875-3.048c16.786-27.285,0.665-46.105-0.03-46.893
		l-2.929-3.323l40.346-0.003c5.935,0.208,9.905,5.733,10.071,5.968c0.211,0.321,0.411,0.641,0.598,0.961V4.559h10.1l-0.117-0.181
		l25.612-0.003v22.056c1.52-2.034,3.256-4.065,5.207-6.09l0.59-0.612h23.781l0.199,0.214l-0.082-0.915h16.188l0.586,0.953
		c1.154,1.877,1.63,3.758,1.639,5.564c2.817-3.581,6.945-5.339,9.712-5.84l0.177-0.032h24.946v26.762l-2.398,0.428
		c8.898,10.379,4.865,20.976,1.23,25.345l-0.6,0.721H251.71V42.851l3.693,5.873c5.53,8.794,11.375,11.374,11.433,11.398
		c1.014,0.403,1.68,0.491,2.053,0.491c0.516,0,0.557-0.121,0.601-0.25c0.388-1.15-0.688-4.157-3.194-6.068
		c-12.597-9.614-13.821-17.491-13.867-17.822l-0.014-0.133c-0.062-0.87-0.066-1.702-0.018-2.494
		c-1.177,1.585-2.51,2.881-3.645,3.759l-2.169,1.677c1.794,8.949,0.922,20.399-7.831,32.852l-0.597,0.85h-25.338l-0.527-0.386
		c-0.473-0.346-11.599-8.632-12.797-22.491c-0.625-7.22,1.562-14.518,6.509-21.786h-1.18l-1.316,2.067
		c-0.531,0.84-12.85,20.852,4.361,39.2l3.159,3.368h-38.82l0.01-0.011h-13.282l-0.253-0.067c-0.557-0.148-1.067-0.357-1.535-0.617
		l0.614,0.729l-4.296,0.004H121.826z M170.861,43.891c4.559,4.09,7.006,8.729,7.272,13.788c0.381,7.246-3.891,12.924-5.026,14.298
		l2.179-2.373c0.514-0.569,12.569-14.378-0.99-39.335l-1.059-1.948h-0.607c1.456,3.153,1.765,6.262,0.934,9.299
		c-0.62,2.264-1.812,4.216-3.18,5.842L170.861,43.891z M149.844,56.332c0.323,4.479,1.94,8.185,3.277,10.55
		c-1.051-3.047-1.127-6.24-1.127-7.104C151.793,58.004,150.827,56.951,149.844,56.332z M224.693,36.347
		c-2.039,4.286-4.664,12.494-0.532,21.06C226.205,53.579,228.917,45.849,224.693,36.347z M165.932,47.498
		c0.815,0.794,1.496,1.742,2.061,2.729c-0.037-1.325-0.162-2.725-0.362-4.037C167.042,46.683,166.465,47.12,165.932,47.498z
		 M277.057,32.647c-0.947,0.289-1.266,0.616-1.302,0.749c-0.109,0.396,0.433,1.407,0.954,1.979l8.515,8.683
		c-4.646-11.26-7.911-11.436-8.078-11.437L277.057,32.647z M149.638,38.848c1.696-1.674,3.261-4.083,2.062-6.644
		c-0.14-0.223-0.857-1.272-2.062-1.469V38.848z M242.523,27.884c1.105,2.121,2.205,4.642,3.075,7.497
		C246.042,31.685,244.126,29.245,242.523,27.884z M195.358,7.498c-1.786,2.631-2.449,4.792-1.87,6.085
		c0.59,1.317,2.434,1.789,2.972,1.899c1.25-0.087,2.743-0.398,3.217-1.343c0.843-1.678-0.894-5.272-1.815-6.655l-1.237-1.855
		L195.358,7.498z M180.889,7.676c-1.701,2.526-2.331,4.61-1.774,5.867c0.591,1.334,2.498,1.822,3.059,1.939
		c1.26-0.089,2.766-0.406,3.26-1.371c0.864-1.688-0.775-5.209-1.704-6.649l-1.319-2.045L180.889,7.676z M81.423,72.919l-0.587-0.595
		c-5.897-5.971-8.122-11.908-6.613-17.646c1.212-4.608,4.735-8.436,8.889-11.49c-1.575,0.485-2.984,0.727-4.239,0.727
		c-2.622,0-4.14-1.077-4.951-1.982c-1.781-1.984-1.653-4.651-1.604-5.204c0.277-5.512,3.06-10.182,8.05-13.509
		c3.664-2.443,7.242-3.299,7.393-3.334l0.225-0.053h20.944c0.276-0.014,0.628-0.021,0.97-0.021c4.453,0,7.809,1.285,9.974,3.819
		c2.848,3.333,2.512,7.643,2.402,8.56l-0.243,19.366c0.979-1.432,1.377-3.388,1.383-3.418L127.318,48
		c2.231,8.609-0.099,14.828-2.446,18.528c-2.554,4.027-5.674,6.005-5.806,6.088l-0.487,0.304H81.423z M96.396,57.155
		c0.107,0.244,0.781,1.645,2.163,1.645c0.802,0,2.528-0.435,5.333-3.225l-0.063-8.981c-2.281,0.852-5.568,2.476-7.07,5.125
		C95.852,53.321,95.732,55.1,96.396,57.155z M96.479,28.526c-1.839,1.564-2.121,2.461-2.09,2.624
		c0.084,0.259,1.005,0.753,1.867,0.922l4.653,0.913c0,0-4.275,2.962-4.466,3.093c1.918-0.757,3.512-1.297,4.526-1.622
		c0.412-2.311,0.246-4.06-0.486-4.987c-0.678-0.857-1.906-1.038-2.817-1.038C97.188,28.432,96.766,28.481,96.479,28.526z
		 M134.055,17.643c-2.202,0-3.969-0.662-5.251-1.966c-0.249-0.252-0.474-0.524-0.675-0.816l-0.513,2.52h-5.578l-1.229-3.255
		l-0.637,3.255h-14.135l-1.643-3.365l-0.673,3.365H97.08l3.208-16.095h6.643l-0.253,1.268l1.324-1.268h14.621l1.194,3.24l0.625-3.24
		h6.45l-0.231,1.135c0.326-0.229,0.671-0.434,1.033-0.616C132.765,1.27,133.958,1,135.247,1c0.87,0,1.702,0.11,2.473,0.328
		c0.839,0.239,1.594,0.617,2.248,1.123c0.686,0.523,1.24,1.213,1.639,2.043c0.333,0.686,0.528,1.471,0.578,2.335h0.254l-0.241,1.176
		V9.28h-0.261l-1.658,8.088h-4.463C135.24,17.551,134.65,17.643,134.055,17.643z M110.169,10.914l0.776-3.834l-1.868,1.661
		L110.169,10.914z M89.759,17.38l-0.378-2.692h-1.429l-1.473,2.692H55.352l0.995-4.912c-0.149,0.065-0.301,0.125-0.457,0.18
		c-0.722,0.267-1.535,0.407-2.391,0.407h-1.536L51.08,17.38h-6.615l3.209-16.117h6.31c0.745,0,1.451,0.08,2.099,0.238
		c0.762,0.182,1.446,0.5,2.025,0.943c0.079,0.061,0.156,0.124,0.23,0.189l0.273-1.348h28.323L86.188,5.02l2.121-3.735H93.8
		l2.593,16.095H89.759z M82.707,11.148l2.036-3.584L81.1,11.148H82.707z M72.225,11.148l3.686-3.635h-1.696l-3.693,3.635H72.225z
		 M63.672,9.15l1.66-1.637h-1.326L63.672,9.15z M24.216,17.38l1.062-5.232h-0.637l-1.065,5.232H16.93l2.001-9.867h-0.719
		l-1.998,9.867H9.558l1.992-9.867h-3.67l1.286-6.229h17.692l-0.944,4.636h0.634l0.947-4.636H45.25l-1.246,6.229h-0.469l-0.744,3.635
		h0.571l-1.268,6.232H24.216z"/>
	<path fill="#F7F3EA" d="M135.247,3c0.687,0,1.327,0.083,1.93,0.252c0.596,0.17,1.119,0.433,1.567,0.78
		c0.447,0.341,0.799,0.786,1.06,1.327c0.26,0.534,0.394,1.176,0.394,1.921h-2.562c-0.033-0.745-0.26-1.273-0.665-1.584
		c-0.418-0.312-0.987-0.468-1.705-0.468c-0.654,0-1.226,0.155-1.713,0.468c-0.481,0.306-0.877,0.708-1.189,1.201
		c-0.312,0.487-0.544,1.035-0.698,1.642c-0.151,0.596-0.225,1.188-0.225,1.762c0,0.417,0.049,0.811,0.15,1.182
		c0.107,0.372,0.263,0.704,0.479,0.994c0.21,0.285,0.484,0.517,0.815,0.681c0.329,0.167,0.728,0.257,1.198,0.257
		c0.495,0,0.917-0.068,1.268-0.197c0.356-0.128,0.662-0.307,0.914-0.531c0.26-0.222,0.471-0.5,0.638-0.818
		c0.169-0.323,0.309-0.676,0.418-1.064h-2.695l0.411-1.976h4.95l-1.34,6.54h-1.621v-1.236h-0.033c-0.38,0.547-0.826,0.93-1.334,1.16
		c-0.515,0.23-1.046,0.351-1.604,0.351c-1.655,0-2.931-0.459-3.826-1.369c-0.9-0.914-1.349-2.235-1.349-3.967
		c0-0.979,0.144-1.905,0.443-2.791c0.293-0.875,0.717-1.65,1.262-2.323c0.547-0.668,1.223-1.207,2.008-1.602
		C133.381,3.197,134.264,3,135.247,3 M53.983,3.263c0.591,0,1.133,0.061,1.625,0.181c0.493,0.118,0.922,0.312,1.284,0.588
		c0.356,0.273,0.638,0.632,0.837,1.081c0.202,0.463,0.3,1.023,0.3,1.691s-0.12,1.264-0.364,1.795
		c-0.246,0.525-0.58,0.968-0.996,1.33c-0.418,0.361-0.9,0.64-1.445,0.832c-0.542,0.2-1.122,0.293-1.727,0.293h-3.168l-0.884,4.326
		h-2.545l2.413-12.117H53.983 M50.754,8.977h2.613c0.654,0,1.166-0.17,1.541-0.52c0.38-0.339,0.563-0.88,0.563-1.597
		c0-0.312-0.049-0.564-0.153-0.764c-0.101-0.195-0.241-0.348-0.416-0.46c-0.175-0.109-0.369-0.18-0.58-0.227
		c-0.214-0.046-0.433-0.068-0.663-0.068h-2.187L50.754,8.977 M128.444,3.285l-2.463,12.095h-2.561l-3.202-8.483h-0.033l-1.661,8.483
		h-2.386l2.449-12.095h2.641l3.168,8.601h0.036l1.66-8.601H128.444 M116.33,3.285l-2.466,12.095h-2.558l2.447-12.095H116.33
		 M112.204,3.285l-5.604,4.98l3.576,7.115h-2.89l-2.659-5.445l-1.779,1.612l-0.767,3.833h-2.564l2.411-12.095h2.564l-1.01,5.063
		h0.033l5.29-5.063H112.204 M92.096,3.285l1.948,12.095h-2.547l-0.378-2.692h-4.353l-1.473,2.692h-2.69l6.869-12.095H92.096
		 M87.773,10.695h3.122l-0.57-4.802h-0.033L87.773,10.695 M84.495,3.285l-0.427,2.137l-7.851,7.726h6.579l-0.427,2.232H72.58
		l0.438-2.206l7.769-7.661h-5.977l0.474-2.229H84.495 M73.913,3.285l-0.424,2.137l-7.851,7.726h6.576l-0.421,2.232h-9.794
		l0.441-2.206l7.769-7.661h-5.977l0.476-2.229H73.913 M62.828,3.285L60.359,15.38h-2.562l2.449-12.095H62.828 M42.811,3.285
		l-0.446,2.229h-6.33L35.51,8.095h5.864L40.95,10.17h-5.864l-0.602,2.978h6.43L40.46,15.38h-8.978l2.433-12.095H42.811
		 M31.709,3.285L29.241,15.38h-2.578l1.062-5.232h-4.717l-1.065,5.232h-2.566L21.83,3.285h2.579l-0.944,4.636h4.715l0.947-4.636
		H31.709 M20.522,3.285l-0.457,2.229h-3.489l-1.998,9.867h-2.577l1.992-9.867h-3.659l0.46-2.229H20.522 M205.352,6.375v19.946
		h-31.595V6.559h5.473c-6.53,9.697,2.827,10.934,2.827,10.934c10.233-0.53,3.352-11.118,3.352-11.118h8.294
		c-6.704,9.881,2.644,11.118,2.644,11.118c10.239-0.53,3.18-11.118,3.18-11.118H205.352 M252.118,21.028
		c4.77,7.76-4.589,14.995-4.589,14.995c1.236-7.94-6.177-11.293-6.177-11.293c-1.943-1.759-2.117-3.702-2.117-3.702H252.118
		 M288.295,21.673v24.762c-5.269-14.287-9.558-15.815-11.152-15.815c-0.435,0-0.669,0.113-0.669,0.113
		c-5.314,1.618-1.237,5.996-1.237,5.996l9.342,9.528c13.015,12.648,3.01,24.672,3.01,24.672H253.71V49.788
		c5.998,9.539,12.349,12.177,12.349,12.177c1.129,0.45,2.068,0.648,2.831,0.648c4.393,0,2.968-6.593-1.38-9.908
		c-12.087-9.225-13.099-16.507-13.099-16.507c-0.881-12.352,11.119-14.525,11.119-14.525H288.295 M77.065,21.673
		c0,0-28.571,22.858-2.466,49.256H47.355c0,0,10.215-9.945,5.112-21.569l-8.546,21.585L40.091,71l-8.905-21.929
		c0,0-3.406,10.782,2.556,21.929L4,70.946c0,0,16.692-14.213,18.107-23.856c0,0,3.404-11.92-9.077-25.417h21.56l11.063,20.875
		l8.721-20.875H77.065 M236.058,21.729c0,0,20.295,21.887,1.059,49.255h-23.646c0,0-27.531-20.134,0.529-49.255H236.058
		 M224.058,61.265c0,0,10.412-12.714,0.708-29.121C224.767,32.144,214.53,46.788,224.058,61.265 M161.088,21.729
		c4.941,0.174,8.438,5.123,8.438,5.123c8.473,12.878-7.412,20.644-7.412,20.644c4.763,1.237,6.353,9.884,6.353,9.884
		c2.644-2.649,1.059-12,1.059-12c13.764,12.35,1.831,25.566,1.831,25.566h-12.161c-5.295-1.412-5.202-11.268-5.202-11.268
		c-0.53-5.473-6.177-6.18-6.177-6.18c-0.531,10.234,5.646,17.497,5.646,17.497h-28.06c17.822-28.968-0.236-49.267-0.236-49.267
		H161.088 M147.638,42.909c0,0,9.005-5.124,5.827-11.649c0,0-1.407-2.557-4.222-2.557c-0.492,0-1.027,0.078-1.604,0.261V42.909
		 M109.899,21.812c11.994,0,10.377,10.236,10.377,10.236l-0.288,22.983c4.258-0.286,5.393-6.53,5.393-6.53
		c3.971,15.322-7.376,22.418-7.376,22.418H82.259c-22.414-22.697,20.425-34.896,20.425-34.896c1.983-8.338-2.279-9.591-5.019-9.591
		c-1.177,0-2.072,0.231-2.072,0.231c-7.378,5.954,0.287,7.375,0.287,7.375c-8.695,6.009-13.9,7.878-17.009,7.878
		c-5.109,0-4.56-5.043-4.56-5.043c0.567-11.917,13.903-15.039,13.903-15.039h20.713C109.262,21.818,109.585,21.812,109.899,21.812
		 M98.56,60.8c1.749,0,4.145-1.053,7.339-4.417l-0.088-12.495c0,0-14.82,3.273-11.292,13.958C94.519,57.847,95.631,60.8,98.56,60.8
		 M201.819,29.314c0,0-13.939,21.889,4.589,41.643h-29.649c0,0,13.772-14.995-0.706-41.643H201.819 M135.247-1
		c-0.848,0-1.665,0.095-2.446,0.285h-4.356h-2.351h-2.076h-1.292h-10.522h-2.834h-4.876h-2.564h-3.281l-0.642,3.218l-1.097,5.505
		l-0.863-5.359l-0.542-3.364h-3.407h-2.624h-0.099h-4.879h-5.709h-4.872h-6.187h-4.899h-2.581h-3.271l-0.074,0.364
		c-0.12-0.034-0.241-0.066-0.364-0.096c-0.785-0.191-1.65-0.291-2.555-0.291h-4.668h-3.282l-0.004,0.022h-3.218h-6.203h-4.898
		h-2.403h-3.879h-4.904h-9.728H7.536L6.877,2.476l-0.46,2.229L5.424,9.513h3.681l-1.024,5.075l-0.623,3.085H3.883l6.21,6.716
		c10.656,11.523,8.195,21.505,8.167,21.603l-0.073,0.255l-0.039,0.263C17.28,52.435,7.418,62.775,1.406,67.901l-8.238,7.024
		l10.825,0.021L33.735,75l3.666,0.007l0.013,0.031l1.978-0.028l1.033,0.002l-0.009-0.017l3.562-0.05l1.107-0.016h2.27H74.6h9.581
		l-0.01-0.01h33.835h0.289l-0.046,0.076h7.157h28.06h8.654l-0.042-0.049h5.587l-0.033,0.036l9.128-0.025h29.649h5.719l0.037,0.027
		h1.307h23.646h2.078l1.195-1.7c8.963-12.752,9.897-24.467,8.438-33.209l0.884-0.683v10.396V70.93v4h4h33.879h1.875l1.199-1.441
		c0.115-0.138,10.446-12.891-0.256-26.716l1.887-0.337V21.673v-4h-4h-22.767h-0.359l-0.354,0.064
		c-2.265,0.41-5.339,1.566-8.069,3.711c-0.302-0.834-0.704-1.674-1.221-2.515l-1.171-1.905h-2.237h-12.883h-4.375l0.063,0.7H214
		h-1.701l-1.18,1.225c-0.609,0.632-1.198,1.265-1.767,1.899V6.375v-4h-4h-4.102h-7.547h-8.294h-7.37l0.12,0.184h-4.401h-4v4v14.745
		c-2.012-1.7-4.932-3.446-8.528-3.573l-0.071-0.002h-0.07h-18.842l0.319-1.557l1.002-4.892h0.63V8.208l0.692-3.379h-1.023
		c-0.122-0.424-0.277-0.831-0.466-1.219c-0.528-1.099-1.281-2.032-2.228-2.756c-0.837-0.647-1.819-1.14-2.899-1.448
		C137.315-0.864,136.301-1,135.247-1L135.247-1z M182.306,13.463c-0.614-0.165-1.263-0.501-1.363-0.732
		c-0.103-0.236-0.045-1.4,1.42-3.66c0.835,1.49,1.444,3.355,1.303,4.064C183.524,13.212,183.13,13.379,182.306,13.463
		L182.306,13.463z M196.6,13.463c-0.582-0.16-1.192-0.48-1.287-0.701c-0.103-0.237-0.051-1.358,1.286-3.506
		c0.807,1.444,1.402,3.194,1.301,3.906C197.719,13.252,197.309,13.39,196.6,13.463L196.6,13.463z M53.596,15.054
		c0.062,0,0.125-0.002,0.188-0.004l-0.531,2.624h-0.191l0.305-1.493L53.596,15.054L53.596,15.054z M42.027,19.38h4.875h2.545h1.551
		l-0.314,0.751l-5.459,13.066L38.125,19.8l-0.223-0.42h2.558H42.027L42.027,19.38z M124.273,32.325
		c0.104-0.926,0.245-3.332-0.628-5.966c2.239,3.362,6.16,10.817,5.581,21.141l-5.145,0.189L124.273,32.325L124.273,32.325z
		 M72.138,61.661c-3.274-4.971-4.785-10.047-4.5-15.161c0.2-3.59,1.262-6.902,2.675-9.801c-0.072,1.055-0.065,4.134,2.119,6.569
		c0.881,0.982,2.368,2.119,4.701,2.508c-2.261,2.448-4.015,5.241-4.844,8.394C71.635,56.654,71.586,59.155,72.138,61.661
		L72.138,61.661z M173.087,43.232c1.024-1.486,1.884-3.181,2.405-5.083c0.038-0.14,0.075-0.283,0.11-0.431
		c1.855,4.66,2.876,9.142,3.057,13.418C177.484,48.33,175.624,45.688,173.087,43.232L173.087,43.232z M224.313,51.378
		c-0.543-3.109-0.294-6.052,0.274-8.584C225.148,46.06,224.891,48.968,224.313,51.378L224.313,51.378z M98.272,56.452
		c-0.602-1.936-0.159-3.066,0.231-3.752c0.691-1.214,1.981-2.213,3.349-2.987l0.035,5.015C99.67,56.773,98.61,56.8,98.56,56.8
		l-0.02,0C98.479,56.756,98.314,56.515,98.272,56.452L98.272,56.452z M266.84,57.861c-1.313-0.78-4.181-2.766-7.302-6.73
		c1.565,1.523,3.398,3.116,5.545,4.754C265.868,56.483,266.442,57.197,266.84,57.861L266.84,57.861z"/>
</g>
<g>
</g>
<g>
</g>
<g>
</g>
<g>
</g>
<g>
</g>
<g>
</g>
<g>
</g>
<g>
</g>
<g>
</g>
<g>
</g>
</svg>
